<mxfile host="app.diagrams.net" modified="2021-03-28T01:18:26.268Z" agent="5.0 (Macintosh)" etag="ArpaliA2Fa4jDO4O0WEW" version="14.5.3" type="github">
  <diagram id="Kxj9L7VQzFotNK31MMJx" name="Page-1">
    <mxGraphModel dx="1052" dy="747" grid="1" gridSize="10" guides="1" tooltips="1" connect="1" arrows="1" fold="1" page="1" pageScale="1" pageWidth="827" pageHeight="1169" math="0" shadow="0">
      <root>
        <mxCell id="0" />
        <mxCell id="1" parent="0" />
        <mxCell id="DBcJLzDv9dAsC0hV_3E9-1" value="Programming Language" style="swimlane;fontStyle=1;align=center;verticalAlign=middle;childLayout=stackLayout;horizontal=1;startSize=29;horizontalStack=0;resizeParent=1;resizeParentMax=0;resizeLast=0;collapsible=0;marginBottom=0;html=1;" vertex="1" parent="1">
          <mxGeometry x="360" y="160" width="170" height="109" as="geometry" />
        </mxCell>
        <mxCell id="DBcJLzDv9dAsC0hV_3E9-4" value="&lt;u&gt;Template&lt;/u&gt;" style="text;html=1;align=left;verticalAlign=middle;resizable=0;points=[];autosize=1;" vertex="1" parent="DBcJLzDv9dAsC0hV_3E9-1">
          <mxGeometry y="29" width="170" height="20" as="geometry" />
        </mxCell>
        <mxCell id="DBcJLzDv9dAsC0hV_3E9-7" value="Name" style="text;html=1;strokeColor=none;fillColor=none;align=left;verticalAlign=middle;whiteSpace=wrap;rounded=0;" vertex="1" parent="DBcJLzDv9dAsC0hV_3E9-1">
          <mxGeometry y="49" width="170" height="20" as="geometry" />
        </mxCell>
        <mxCell id="DBcJLzDv9dAsC0hV_3E9-14" value="Designer" style="text;html=1;strokeColor=none;fillColor=none;align=left;verticalAlign=middle;whiteSpace=wrap;rounded=0;" vertex="1" parent="DBcJLzDv9dAsC0hV_3E9-1">
          <mxGeometry y="69" width="170" height="20" as="geometry" />
        </mxCell>
        <mxCell id="DBcJLzDv9dAsC0hV_3E9-12" value="Creation date" style="text;html=1;strokeColor=none;fillColor=none;align=left;verticalAlign=middle;whiteSpace=wrap;rounded=0;" vertex="1" parent="DBcJLzDv9dAsC0hV_3E9-1">
          <mxGeometry y="89" width="170" height="20" as="geometry" />
        </mxCell>
        <mxCell id="DBcJLzDv9dAsC0hV_3E9-15" value="JavaScript" style="swimlane;fontStyle=1;align=center;verticalAlign=middle;childLayout=stackLayout;horizontal=1;startSize=29;horizontalStack=0;resizeParent=1;resizeParentMax=0;resizeLast=0;collapsible=0;marginBottom=0;html=1;" vertex="1" parent="1">
          <mxGeometry x="560" y="360" width="210" height="109" as="geometry" />
        </mxCell>
        <mxCell id="DBcJLzDv9dAsC0hV_3E9-16" value="&lt;div&gt;&lt;u&gt;Own&lt;/u&gt;&lt;/div&gt;" style="text;html=1;align=left;verticalAlign=middle;resizable=0;points=[];autosize=1;" vertex="1" parent="DBcJLzDv9dAsC0hV_3E9-15">
          <mxGeometry y="29" width="210" height="20" as="geometry" />
        </mxCell>
        <mxCell id="DBcJLzDv9dAsC0hV_3E9-17" value="Name = JavaScript" style="text;html=1;strokeColor=none;fillColor=none;align=left;verticalAlign=middle;whiteSpace=wrap;rounded=0;" vertex="1" parent="DBcJLzDv9dAsC0hV_3E9-15">
          <mxGeometry y="49" width="210" height="20" as="geometry" />
        </mxCell>
        <mxCell id="DBcJLzDv9dAsC0hV_3E9-18" value="Designer =" style="text;html=1;strokeColor=none;fillColor=none;align=left;verticalAlign=middle;whiteSpace=wrap;rounded=0;" vertex="1" parent="DBcJLzDv9dAsC0hV_3E9-15">
          <mxGeometry y="69" width="210" height="20" as="geometry" />
        </mxCell>
        <mxCell id="DBcJLzDv9dAsC0hV_3E9-19" value="Creation date = December&amp;nbsp;4, 1995&lt;span class=&quot;noprint&quot;&gt;&lt;/span&gt;" style="text;html=1;strokeColor=none;fillColor=none;align=left;verticalAlign=middle;whiteSpace=wrap;rounded=0;" vertex="1" parent="DBcJLzDv9dAsC0hV_3E9-15">
          <mxGeometry y="89" width="210" height="20" as="geometry" />
        </mxCell>
        <mxCell id="DBcJLzDv9dAsC0hV_3E9-20" value="&lt;div&gt;instance of&lt;/div&gt;" style="endArrow=classic;html=1;entryX=0.75;entryY=1;entryDx=0;entryDy=0;exitX=0.5;exitY=0;exitDx=0;exitDy=0;" edge="1" parent="1" source="DBcJLzDv9dAsC0hV_3E9-15" target="DBcJLzDv9dAsC0hV_3E9-12">
          <mxGeometry width="50" height="50" relative="1" as="geometry">
            <mxPoint x="570" y="290" as="sourcePoint" />
            <mxPoint x="660" y="290" as="targetPoint" />
          </mxGeometry>
        </mxCell>
        <mxCell id="DBcJLzDv9dAsC0hV_3E9-21" value="Brendan Eich" style="swimlane;fontStyle=1;align=center;verticalAlign=middle;childLayout=stackLayout;horizontal=1;startSize=29;horizontalStack=0;resizeParent=1;resizeParentMax=0;resizeLast=0;collapsible=0;marginBottom=0;html=1;" vertex="1" parent="1">
          <mxGeometry x="850" y="370" width="170" height="109" as="geometry" />
        </mxCell>
        <mxCell id="DBcJLzDv9dAsC0hV_3E9-22" value="&lt;div&gt;&lt;u&gt;Own&lt;/u&gt;&lt;/div&gt;" style="text;html=1;align=left;verticalAlign=middle;resizable=0;points=[];autosize=1;" vertex="1" parent="DBcJLzDv9dAsC0hV_3E9-21">
          <mxGeometry y="29" width="170" height="20" as="geometry" />
        </mxCell>
        <mxCell id="DBcJLzDv9dAsC0hV_3E9-23" value="Name = Brendan Eich" style="text;html=1;strokeColor=none;fillColor=none;align=left;verticalAlign=middle;whiteSpace=wrap;rounded=0;" vertex="1" parent="DBcJLzDv9dAsC0hV_3E9-21">
          <mxGeometry y="49" width="170" height="20" as="geometry" />
        </mxCell>
        <mxCell id="DBcJLzDv9dAsC0hV_3E9-24" value="Workplace = Brave Software" style="text;html=1;strokeColor=none;fillColor=none;align=left;verticalAlign=middle;whiteSpace=wrap;rounded=0;" vertex="1" parent="DBcJLzDv9dAsC0hV_3E9-21">
          <mxGeometry y="69" width="170" height="20" as="geometry" />
        </mxCell>
        <mxCell id="DBcJLzDv9dAsC0hV_3E9-25" value="Website = brendaneich.com" style="text;html=1;strokeColor=none;fillColor=none;align=left;verticalAlign=middle;whiteSpace=wrap;rounded=0;" vertex="1" parent="DBcJLzDv9dAsC0hV_3E9-21">
          <mxGeometry y="89" width="170" height="20" as="geometry" />
        </mxCell>
        <mxCell id="DBcJLzDv9dAsC0hV_3E9-26" value="" style="endArrow=classic;html=1;entryX=0;entryY=0;entryDx=0;entryDy=0;exitX=0.353;exitY=0.5;exitDx=0;exitDy=0;exitPerimeter=0;" edge="1" parent="1" source="DBcJLzDv9dAsC0hV_3E9-18" target="DBcJLzDv9dAsC0hV_3E9-24">
          <mxGeometry width="50" height="50" relative="1" as="geometry">
            <mxPoint x="770" y="419" as="sourcePoint" />
            <mxPoint x="760" y="370" as="targetPoint" />
          </mxGeometry>
        </mxCell>
        <mxCell id="DBcJLzDv9dAsC0hV_3E9-27" value="Python" style="swimlane;fontStyle=1;align=center;verticalAlign=middle;childLayout=stackLayout;horizontal=1;startSize=29;horizontalStack=0;resizeParent=1;resizeParentMax=0;resizeLast=0;collapsible=0;marginBottom=0;html=1;" vertex="1" parent="1">
          <mxGeometry x="40" y="370" width="210" height="109" as="geometry" />
        </mxCell>
        <mxCell id="DBcJLzDv9dAsC0hV_3E9-28" value="&lt;div&gt;&lt;u&gt;Own&lt;/u&gt;&lt;/div&gt;" style="text;html=1;align=left;verticalAlign=middle;resizable=0;points=[];autosize=1;" vertex="1" parent="DBcJLzDv9dAsC0hV_3E9-27">
          <mxGeometry y="29" width="210" height="20" as="geometry" />
        </mxCell>
        <mxCell id="DBcJLzDv9dAsC0hV_3E9-29" value="Name = Python" style="text;html=1;strokeColor=none;fillColor=none;align=left;verticalAlign=middle;whiteSpace=wrap;rounded=0;" vertex="1" parent="DBcJLzDv9dAsC0hV_3E9-27">
          <mxGeometry y="49" width="210" height="20" as="geometry" />
        </mxCell>
        <mxCell id="DBcJLzDv9dAsC0hV_3E9-30" value="Designer =" style="text;html=1;strokeColor=none;fillColor=none;align=left;verticalAlign=middle;whiteSpace=wrap;rounded=0;" vertex="1" parent="DBcJLzDv9dAsC0hV_3E9-27">
          <mxGeometry y="69" width="210" height="20" as="geometry" />
        </mxCell>
        <mxCell id="DBcJLzDv9dAsC0hV_3E9-31" value="Creation date = February&amp;nbsp;1991&lt;span class=&quot;noprint&quot;&gt;&lt;/span&gt;" style="text;html=1;strokeColor=none;fillColor=none;align=left;verticalAlign=middle;whiteSpace=wrap;rounded=0;" vertex="1" parent="DBcJLzDv9dAsC0hV_3E9-27">
          <mxGeometry y="89" width="210" height="20" as="geometry" />
        </mxCell>
        <mxCell id="DBcJLzDv9dAsC0hV_3E9-32" value="Guido van Rossum" style="swimlane;fontStyle=1;align=center;verticalAlign=middle;childLayout=stackLayout;horizontal=1;startSize=29;horizontalStack=0;resizeParent=1;resizeParentMax=0;resizeLast=0;collapsible=0;marginBottom=0;html=1;" vertex="1" parent="1">
          <mxGeometry x="300" y="385" width="190" height="109" as="geometry" />
        </mxCell>
        <mxCell id="DBcJLzDv9dAsC0hV_3E9-33" value="&lt;div&gt;&lt;u&gt;Own&lt;/u&gt;&lt;/div&gt;" style="text;html=1;align=left;verticalAlign=middle;resizable=0;points=[];autosize=1;" vertex="1" parent="DBcJLzDv9dAsC0hV_3E9-32">
          <mxGeometry y="29" width="190" height="20" as="geometry" />
        </mxCell>
        <mxCell id="DBcJLzDv9dAsC0hV_3E9-34" value="Name = Guido van Rossum" style="text;html=1;strokeColor=none;fillColor=none;align=left;verticalAlign=middle;whiteSpace=wrap;rounded=0;" vertex="1" parent="DBcJLzDv9dAsC0hV_3E9-32">
          <mxGeometry y="49" width="190" height="20" as="geometry" />
        </mxCell>
        <mxCell id="DBcJLzDv9dAsC0hV_3E9-35" value="Workplace = Microsoft" style="text;html=1;strokeColor=none;fillColor=none;align=left;verticalAlign=middle;whiteSpace=wrap;rounded=0;" vertex="1" parent="DBcJLzDv9dAsC0hV_3E9-32">
          <mxGeometry y="69" width="190" height="20" as="geometry" />
        </mxCell>
        <mxCell id="DBcJLzDv9dAsC0hV_3E9-36" value="Website = gvanrossum.github.io" style="text;html=1;strokeColor=none;fillColor=none;align=left;verticalAlign=middle;whiteSpace=wrap;rounded=0;" vertex="1" parent="DBcJLzDv9dAsC0hV_3E9-32">
          <mxGeometry y="89" width="190" height="20" as="geometry" />
        </mxCell>
        <mxCell id="DBcJLzDv9dAsC0hV_3E9-37" value="" style="endArrow=classic;html=1;entryX=0;entryY=0.75;entryDx=0;entryDy=0;exitX=0.333;exitY=0.55;exitDx=0;exitDy=0;exitPerimeter=0;" edge="1" parent="1" source="DBcJLzDv9dAsC0hV_3E9-30" target="DBcJLzDv9dAsC0hV_3E9-34">
          <mxGeometry width="50" height="50" relative="1" as="geometry">
            <mxPoint x="130" y="439" as="sourcePoint" />
            <mxPoint x="410" y="370" as="targetPoint" />
          </mxGeometry>
        </mxCell>
        <mxCell id="DBcJLzDv9dAsC0hV_3E9-38" value="" style="endArrow=classic;html=1;exitX=0.5;exitY=0;exitDx=0;exitDy=0;entryX=0.25;entryY=1;entryDx=0;entryDy=0;" edge="1" parent="1" source="DBcJLzDv9dAsC0hV_3E9-27" target="DBcJLzDv9dAsC0hV_3E9-1">
          <mxGeometry width="50" height="50" relative="1" as="geometry">
            <mxPoint x="210" y="420" as="sourcePoint" />
            <mxPoint x="260" y="370" as="targetPoint" />
          </mxGeometry>
        </mxCell>
        <mxCell id="DBcJLzDv9dAsC0hV_3E9-39" value="&lt;div&gt;instance of&lt;/div&gt;" style="edgeLabel;html=1;align=center;verticalAlign=middle;resizable=0;points=[];" vertex="1" connectable="0" parent="DBcJLzDv9dAsC0hV_3E9-38">
          <mxGeometry x="0.1898" y="-2" relative="1" as="geometry">
            <mxPoint as="offset" />
          </mxGeometry>
        </mxCell>
      </root>
    </mxGraphModel>
  </diagram>
</mxfile>
